/* XPM */
static char *_43fec2114bd438cfa201983f1273a52mJ3xcVrlOVxBWisq[] = {
/* columns rows colors chars-per-pixel */
"50 50 9 1 ",
"  c #05370C",
". c #7F7B7A",
"X c #7E7C7B",
"o c #7F7E7D",
"O c #807D7B",
"+ c #817F7F",
"@ c #12BC2A",
"# c #81807F",
"$ c #818080",
/* pixels */
"oo++++OXoo+#+++.oo+#+++Oooo++++OXoo+#+++.oo+#+++OX",
"++###++oo+##$++oo+##$#+Oo++###++Xo+##$++oo+##$#++o",
"o##+o++oo+##o++oo+##o+++oo##+o++oo+##o++oo+##o+++o",
"+oo+++++++o++++O++o++++O++oo+++++++o++++O++o++++O+",
"OO.Xo++O+O.XoX+++O..oo++++O.Xo++++O.XoX+++O..oo+++",
"++oo+####++o++#$#++o++#$$++Xo+##$#++o++#$#++o++##$",
"++oo+##o++ooo##oo++oo##+o++Xo+##o++ooo##oo++oo##+o",
"#++++o++#++++o++##++++o++#++++o++#++++o++##++++o++",
"+OOO.XXO++OO.XXXOOOOO.XX++OOO.XXO++OO.XXX++OOO.XXO",
"##++oo++###+Oo++###++o++###++oo++###+Oo++###++o++#",
"+o++oo+##o++ooo##++++oo##+o++oo+##o++ooo##++++oo##",
"++#++++o++#++++o++##+++++++#++++o++#++++o++##+++++",
"XOOXX++XOOOOXO+XOXOOXO+OXOOOXX++XOOOOXOOXOXOOXO+OX",
"++Xo++##++Oo++###++oo+###++Xo++#@@ Oo++###++oo+###",
"++oo+##o++ooo##++++oo@@#o++oo+##@@ ooo##++++oo###o",
"$+++++#+#+++++#++#+++@@++$+++++#@@ ++++#++#+++++++",
"+OO+O.X+++O++.XO++O++@@X++OO+O.X@@ O++.XO++O++X.X+",
"o+#+++Xoo+#+++Oooo##+@@Xoo+#+++X@@ #+++Oooo##+++Xo",
"###+@@@@@@##+@@@@@##+@@@@@@#+++o@@ #@@++oo#@@@@+oo",
"+++o@@@@@@#o@@@@@@@++@@@@@@@@#++@@@@@ +++@@@@@@@++",
"OX++++++@@OO@@O+ @@++@@    @@@+O@@@  ++O+@@o+ @@O+",
"ooo+#++@@ o@@+++ @@o+@@+OX  @@++@@  +#++@@ooo @@+O",
"oo###@@@ o+@@$++ @@##@@++oo @@$+@@@@@#$+@@o+# @@++",
"+o++@@  oo++@@++ @@##@@#+oo@@@o#@@  @@o++@@o# @@#o",
"+++X@@@@@@+X@@@@@@@XX@@@@@@@@@++@@++ @@++@@@@@@@++",
"o+++@@@@@@++++@@@@+++@@@@@@@@++.@@+++ @OXoo@@@@O.o",
"+##$++oo+##$#++o+##$#++oo+##$++oo+##$#++o+####++oo",
"###o++oo+##o+++oo##+o++oo+##o++oo+##o+++oo##+o++oo",
"+o++++O++o++++O@@oo+++++++o++++O@@@ +++O++oo++++O+",
"OO.oo++++X.XoX++@@..oo+++OO.oX+@@@ .XoX+++X..oo+++",
"++oo+##$#++o++#$#@@@@+#$$++oo+@@@ ++o++#$#++o++#$$",
"++oo+##o++ooo##oo+@@@@@+o++@@@@@ ++ooo##oo++oo##+o",
"#++++o++#++++o++##+@@@@@@@@@@@ ++#++++o++##++++o++",
"+OOO.XXO++OO.XXX++OOO@@@@@@   XXO++OO.XXX++OOO.XX+",
"##++oo++###+Oo++###++       +oo++###+Oo++###+Oo++#",
"+o++oo+##o++ooo##++++oo##+o++oo+##o++ooo##++++oo##",
"++#++++o++#++++o++##+++++++#++++o++#++++o++##+++++",
"XOOXX++XOOOOXO+XOXOOXO+OXOOOXX++XOOOOXO+XOXOOXO+OX",
"++Xo++##++Oo++###++oo+###++Xo++##++Oo++###+Ooo+###",
"++oo+##o++ooo##++++oo###o++oo+##o++ooo##++++oo###o",
"$+++++#+#++++++++#+++++++#+++++#+#+O++++++#+++++++",
"+OO+OXXO++X++XXX+OX++OXXO+OO+OXXOOOX++XXX++X++OXX+",
"+o##+++Xoo+#+++Xoo+#+++Ooo+##+++Xoo+#+++Xoo+#+++Oo",
"+###+++Xo###+++oo+###+++oo###+++oo###+++oo+###+++o",
"++#++#++++++o#+++++#o#+++++#++#++++++o#+++++#o#+O+",
"+XoO++OO+OXO+++O++X++++O+OXo+++OO++XO+++O++XO+++O+",
"ooo+#+++Xoo+#+++Oooo++++OXoo+#+++Xoo+#+++Oooo++++O",
"oo###$++oo+##$+++o+####++oo###$++oo+##$+++o+####++",
"+o+++o#+oo++#o+++oo##++#+oo+++o#+oo++#o+++oo##++#o",
"#++o++#++#+o++#+O++o++##++#+o++#++#+o++#+O++o++#++"
};
