/* XPM */
static char *e943c7736b474e67a93af8cd52302de50WaxeC4ULkvZVtUH[] = {
/* columns rows colors chars-per-pixel */
"50 50 123 2 ",
"   c #030304",
".  c #090405",
"X  c #0E0807",
"o  c #05040B",
"O  c #0C060A",
"+  c #050A0B",
"@  c #0C0D0E",
"#  c #120A07",
"$  c #12060C",
"%  c #1A070D",
"&  c #120B0A",
"*  c #00180E",
"=  c #15110E",
"-  c #1B120E",
";  c #060510",
":  c #0B0712",
">  c #0D0A16",
",  c #0E0B19",
"<  c #130B15",
"1  c #1C0B13",
"2  c #140C1A",
"3  c #1A0D19",
"4  c #021111",
"5  c #0E1011",
"6  c #021A14",
"7  c #0F141C",
"8  c #011C1A",
"9  c #0A1F1A",
"0  c #1E1411",
"q  c #12111A",
"w  c #1D101D",
"e  c #341908",
"r  c #210C16",
"t  c #240E19",
"y  c #280F1A",
"u  c #211612",
"i  c #261A14",
"p  c #23111D",
"a  c #2B111D",
"s  c #2C1A1E",
"d  c #311317",
"f  c #331F14",
"g  c #30121F",
"h  c #351F1B",
"j  c #01231B",
"k  c #2D271B",
"l  c #151725",
"z  c #191525",
"x  c #161927",
"c  c #1A1C2D",
"v  c #1E1C30",
"b  c #241120",
"n  c #2B1322",
"m  c #2E1F23",
"M  c #331523",
"N  c #381725",
"B  c #351A25",
"V  c #361828",
"C  c #3E1A2A",
"Z  c #241F35",
"A  c #2B1E35",
"S  c #002422",
"D  c #0F2720",
"F  c #19202E",
"G  c #003123",
"H  c #003629",
"J  c #003B2C",
"K  c #1D2334",
"L  c #2E2221",
"P  c #342125",
"I  c #3B2528",
"U  c #2D392E",
"Y  c #202437",
"T  c #2C223B",
"R  c #21283B",
"E  c #30213B",
"W  c #431F1B",
"Q  c #431C2D",
"!  c #471F30",
"~  c #491F30",
"^  c #462420",
"/  c #482522",
"(  c #42252E",
")  c #4E2E2D",
"_  c #48352E",
"`  c #4A2031",
"'  c #593331",
"]  c #643937",
"[  c #6A3B34",
"{  c #623B39",
"}  c #004432",
"|  c #6E4139",
" . c #74403A",
".. c #2F2440",
"X. c #332543",
"o. c #372846",
"O. c #005540",
"+. c #005B43",
"@. c #006147",
"#. c #00674B",
"$. c #006C4F",
"%. c #724341",
"&. c #7F7D7C",
"*. c #B5601C",
"=. c #8B5148",
"-. c #985E54",
";. c #A55C53",
":. c #B0655A",
">. c #BD695F",
",. c #807E7D",
"<. c #827F7E",
"1. c #AD6A62",
"2. c #D2776B",
"3. c #D3786B",
"4. c #D3786C",
"5. c #80807F",
"6. c #81807F",
"7. c #C78A7B",
"8. c #CB8B7D",
"9. c #DE8A7C",
"0. c #808080",
"q. c #818080",
"w. c #E4988A",
/* pixels */
"&.&.<.<.<.<.<.&.&.&.<.6.<.<.<.&.&.&.<.6.<.<.<.&.&.&.&.<.<.<.<.<.&.&.&.<.6.<.<.<.&.&.&.<.6.<.<.&.&.&.",
"<.<.6.6.6.<.<.&.&.<.6.6.q.<.<.&.&.&.6.6.q.6.<.&.&.&.<.6.6.6.<.<.&.&.<.6.6.q.<.<.&.&.<.6.6.q.6.<.<.&.",
"&.6.6.<.&.<.<.&.&.<.6.6.&.<.<.&.&.<.6.6.&.<.<.<.&.&.6.6.<.&.<.<.&.&.<.6.6.&.<.<.&.&.&.6.6.&.<.<.<.&.",
"<.&.&.<.<.<.<.<.<.<.&.<.<.<.<.<.<.<.&.<.<.<.<.<.<.<.&.&.<.<.<.<.<.<.* } j <.<.<.<.<.<.&.<.<.<.<.<.<.",
"<.<.&.&.&.<.<.<.<.<.&.&.&.&.<.<.<.<.&.&.&.&.<.<.<.<.<.&.&.&.&.<.<.  H $.H   &.<.<.<.<.&.&.&.&.<.<.<.",
"<.<.&.&.<.6.6.q.6.<.<.&.<.<.6.q.6.<.<.&.<.<.6.q.q.<.<.&.&.<.6.6.O a k } 4 <.<.6.q.6.<.<.&.<.<.6.q.q.",
"<.<.&.&.<.6.6.&.<.<.&.&.&.6.6.&.&.<.<.&.&.6.6.<.  &.<.&.&.<.6.. g W *.f . &.6.6.&.&.<.<.&.&.6.6.<.&.",
"6.&.<.<.<.&.&.<.6.<.<.<.<.&.<.<.6.6.<.<.<.<.: A T E O <.<.<.&.  @ d e p r <.&.<.<.6.6.<.<.<.<.&.<.<.",
"<.<.<.<.&.&.&.<.<.<.<.<.&.&.&.&.<.<.<.<.<.w o...Z Z ( [ <.&.<.G j $ ; > n . &.&.&.<.<.<.<.<.&.&.&.<.",
"6.6.<.<.&.&.<.<.6.6.6.<.<.&.<.<.6.6.6.<.<.A T v c P | 8.-.= G j   6.o , p $ &.<.&.6.6.6.<.<.&.<.<.6.",
"<.&.<.<.&.&.&.6.6.&.<.<.&.&.&.6.6.<.<.<.< X.Z c B :.7.w.1.L 6 <.6.6.  > 3 a &.&.6.6.<.<.<.<.&.&.6.6.",
"<.<.6.<.<.<.&.&.<.<.6.<.<.<.<.&.<.<.6.6.<., z z  .9.1.{ I P & <.&.<.  : 3 a <.<.&.<.<.6.6.<.<.<.<.<.",
"&.<.<.&.&.<.<.&.<.<.<.<.&.<.<.&.<.&.<.<.&.<.  . ' { P m P s O <.&.<.  : , p $ <.&.<.&.<.<.&.<.<.<.&.",
"<.<.&.&.<.<.6.6.<.<.<.&.&.&.6.6.6.<.<.&.&.<.<.  / ] %.%.) 6 <.6.6.. y 2 > b % 6.6.6.<.<.&.&.<.6.6.6.",
"<.&.&.&.<.6.6.&.<.<.&.&.&.6.6.<.<.&.<.&.&.<.} D >.4.3.:.U } . . r a 3 > > w % 6.<.<.<.<.&.&.6.6.6.&.",
"q.&.&.&.<.<.6.<.6.<.<.<.<.&.6.<.<.6.<.<.<.j #.} =.2.2.^ G j Q Q V 3 > > > o <.6.<.<.6.<.<.&.<.&.<.<.",
"&.&.<.<.<.&.&.<.<.<.<.<.<.&.&.<.<.<.<.<.o 4 O.#.} _ ;.h J 9 Q b 3 > > o   <.&.&.<.&.<.<.<.<.&.&.&.<.",
"&.<.6.<.<.<.&.&.&.<.6.<.<.<.<.&.&.&.<.r a n 8 +.#.+.J } @.9 n > > : o <.<.<.<.<.&.&.&.6.6.<.&.<.&.&.",
"6.6.6.<.<.<.&.&.<.6.6.6.&.&.<.&.&.6.O Q Q V a 8 H +.@.$.} 7 : > o   6.6.6.<.<.<.&.&.6.6.6.<.<.<.&.&.",
"<.<.<.&.6.<.<.&.<.<.6.&.&.&.<.<.<.<.y ! ~ n V a 1 + j J S x o : <.<.<.6.&.<.<.&.<.<.<.6.<.<.6.<.<.<.",
"<.&.<.<.<.<.<.<.<.&.<.<.<.<.<.<.<.<.N ` ~ n p ! N q l > K F 1 $ <.<.&.<.&.<.<.<.<.<.&.&.&.<.<.<.<.<.",
"&.&.&.<.6.<.<.<.&.&.&.<.6.<.<.<.<.1 Q ~ C < 3 ~ ~ 1 K R R c r $ <.&.&.&.&.6.<.<.<.<.&.&.&.<.<.<.<.<.",
"&.&.6.6.6.q.<.<.&.&.&.6.6.q.<.<.<.a ` ! 3 o w ~ ~ p c R R K : $ <.&.&.<.6.6.q.<.<.<.&.&.6.6.6.6.<.<.",
"<.&.<.<.<.&.6.<.&.&.<.<.6.&.<.&.O Q ~ V O : V ~ ~ Q q R R K : y <.&.&.<.<.6.&.<.<.<.&.&.6.6.<.<.6.&.",
"<.<.<.&.<.<.<.<.<.<.<.&.<.<.<.<.1 Q Q w o 2 Q ~ ~ C < R R K o 1 <.<.<.<.&.<.<.<.<.<.<.<.&.&.<.<.<.<.",
"&.<.<.<.<.<.&.&.&.<.<.<.<.<.<.&.M ` C :   2 C ~ ~ C < R Y x o o <.&.<.<.<.<.<.<.&.&.&.<.<.<.<.<.&.&.",
"<.6.6.q.&.<.&.&.<.6.6.q.6.<.<.&.< ! ~ M O : b ~ ~ Q w x , , o o <.<.6.6.q.6.<.<.&.<.6.6.q.q.<.<.&.&.",
"6.6.6.&.&.&.&.&.<.6.6.&.&.<.<.&.o n ~ ~ M o > t Q ` a o > > o o &.<.6.6.&.&.&.<.&.&.6.6.&.&.<.<.&.&.",
"<.&.<.<.<.<.<.<.<.&.<.<.<.<.<.<.<.o n ~ Q 3 o M ~ ` a o , , o : $ <.&.<.<.<.<.<.<.<.&.&.<.<.<.<.<.<.",
"<.<.&.&.&.<.<.<.<.&.&.&.&.&.<.<.<.&.o n C y M ~ ~ ` a o : :   3 r <.&.&.&.&.&.<.<.<.&.&.&.&.&.<.<.<.",
"<.<.&.&.<.6.6.q.6.<.<.&.<.<.6.q.6.<.o o O N ~ ~ ~ ` a     o   3 r 6.<.<.&.<.<.6.q.6.<.<.&.<.<.6.q.q.",
"<.<.&.&.<.6.6.&.<.<.&.&.&.6.6.&.&.  : O M ~ ~ ~ ~ ` a o . O   3 r <.<.&.&.&.6.6.&.&.<.<.&.&.6.6.<.&.",
"6.<.<.<.<.&.<.<.6.<.<.<.<.&.<.<.6.o > 2 Q ~ ~ ~ ~ ` a   O O   3 r 6.<.<.<.<.&.<.<.6.6.<.<.<.<.&.<.<.",
"<.<.<.<.&.&.&.<.<.<.<.<.&.&.&.&.<.o > > V ~ ~ ~ ~ Q t o O O   : O <.<.<.<.&.&.&.&.<.<.<.<.<.&.&.&.<.",
"6.6.<.<.&.&.<.<.6.6.6.<.<.&.<.&.6.o : > 3 Q ~ ~ ~ Q O O O O   : o 6.6.6.<.<.&.<.<.6.6.6.<.<.&.<.<.6.",
"<.&.&.&.&.&.<.6.6.&.<.<.&.&.&.6.6.<.o o : n C ~ ` M   O O O   : o 6.&.<.<.&.&.&.6.6.<.<.<.<.&.&.6.6.",
"<.<.6.&.&.<.<.&.<.<.6.<.<.<.<.&.<.<.6.  O o O 1 1 .   O O O       <.<.6.<.<.<.<.&.<.<.6.6.<.<.<.<.<.",
"&.<.<.&.&.<.<.&.<.<.<.<.&.<.<.&.<.&.<.  - u u -   <.  O O O   <.&.<.<.<.<.&.<.<.&.<.&.<.<.&.<.<.<.&.",
"<.<.&.&.<.<.6.6.<.<.<.&.<.<.6.6.6.<.<.  - i i & <.<.  O O O <.6.6.<.<.<.&.<.<.6.6.6.<.<.&.&.<.6.6.6.",
"<.<.&.&.<.6.6.&.<.<.&.&.&.6.6.<.<.<.<.o u i u o &.<.o O O   6.6.&.<.<.&.&.&.6.6.<.<.<.<.&.&.6.6.6.&.",
"q.&.<.<.<.<.6.<.6.<.&.<.<.<.<.<.<.6.<.# i i - <.<.  O O O   <.6.<.6.<.<.&.<.<.<.&.<.6.<.<.<.<.<.&.&.",
"<.<.<.<.<.&.&.<.<.<.&.<.<.&.&.&.<.&.&.# i i - <.<.  O O o <.&.&.<.<.<.&.<.<.&.&.&.<.<.&.<.<.<.&.&.<.",
"<.&.6.6.<.<.<.&.&.&.<.6.<.<.<.&.&.&.<.# i u . <.&.  O O o <.<.<.&.&.&.<.6.<.<.<.&.&.&.<.6.<.<.<.&.&.",
"<.6.6.6.&.<.<.&.&.6.6.6.&.<.<.&.&.<.6.# i u   <.&.  O O   <.<.&.&.&.6.6.6.&.<.<.&.&.<.6.6.6.&.<.&.&.",
"<.<.6.&.<.6.<.<.<.<.<.<.&.6.<.<.<.<.<.# i 0   <.<.  O O   <.6.<.<.&.&.&.<.&.6.<.<.<.<.<.6.&.6.<.&.<.",
"<.&.&.<.<.<.<.<.<.<.&.&.<.<.<.<.<.<.&.. u # <.<.<.<.o O   <.<.&.<.<.<.&.&.<.<.<.<.<.<.&.&.&.<.<.<.<.",
"&.&.&.<.6.<.<.&.&.&.&.<.6.<.<.<.<.&.&.  - # <.<.&.&.  O   6.<.<.<.&.&.&.&.6.<.<.<.<.&.&.&.<.<.<.<.<.",
"&.&.6.6.6.q.&.<.&.&.<.6.6.q.&.<.<.&.<.  - X 6.&.&.&.  O   6.6.<.<.&.&.<.6.6.q.&.<.<.&.<.6.6.6.6.<.<.",
"<.&.<.<.<.&.6.<.&.&.<.<.6.&.<.<.<.&.&.  o o <.6.<.&.  o +   <.6.<.&.&.<.<.6.&.<.<.<.&.&.6.6.<.<.6.&.",
"6.<.<.&.<.<.6.<.<.6.<.&.<.<.6.<.<.<.<.  @ 5   6.<.<.  > 5 5 +   <.<.6.<.&.<.<.6.<.<.<.<.&.<.<.6.<.<."
};
