/* XPM */
static char *_8af16712b414c9ba768aa5608092450Y6mF5b09yHHCfHRE[] = {
/* columns rows colors chars-per-pixel */
"50 50 87 1 ",
"  c black",
". c #040101",
"X c #090101",
"o c #1B0908",
"O c #1F0C0B",
"+ c #061602",
"@ c #011F01",
"# c #071F03",
"$ c #081F04",
"% c #1A1A13",
"& c #1B1A15",
"* c #1A1E14",
"= c #3F0E0E",
"- c #3E1614",
"; c #052303",
": c #0B2F0B",
"> c #0A3509",
", c #0D3408",
"< c #0B3E0B",
"1 c #0F3F0E",
"2 c #113E11",
"3 c #23271A",
"4 c #3C3A2E",
"5 c #461414",
"6 c #054504",
"7 c #054904",
"8 c #10400F",
"9 c #055503",
"0 c #055305",
"q c #065405",
"w c #085906",
"e c #115807",
"r c #0B6406",
"t c #056A04",
"y c #106108",
"u c #0F7B09",
"i c #1A770D",
"p c #107C0A",
"a c #177A0C",
"s c #116F10",
"d c #1C6C18",
"f c #1B7D10",
"g c #404230",
"h c #434134",
"j c #4C4C3A",
"k c #544A40",
"l c #574D42",
"z c #63594D",
"x c #675D50",
"c c #65634C",
"v c #68674F",
"b c #7F7B7A",
"n c #7E7C7B",
"m c #7F7E7D",
"M c #8F2323",
"N c #807D7B",
"B c #817F7F",
"V c #088F06",
"C c #0E8B08",
"Z c #098F08",
"A c #11830A",
"S c #15860B",
"D c #15820C",
"F c #16840C",
"G c #12880B",
"H c #089006",
"J c #0A9108",
"K c #199917",
"L c #1B9919",
"P c #2E9F2C",
"I c #34A333",
"U c #66A565",
"Y c #7EC37C",
"T c #898667",
"R c #81807F",
"E c #818080",
"W c #BDBB8F",
"Q c #81C881",
"! c #99D098",
"~ c #DBC5A9",
"^ c #E2CCAF",
"/ c #E3CCB0",
"( c #F3DBBE",
") c #F4DCBF",
"_ c #F9F4BB",
"` c #FBE3C4",
"' c #FCE4C5",
/* pixels */
"mmBBBBNnmmBRBBBbmmBRBBBNmmmBBBBNnmmBRBBBbmmBRBBBNn",
"BBRRRBBmmBRREBBmmBRRERBNmBBRRRBBnmBRREBBmmBRRERBBm",
"mRRBmBBmmBRRmBBmmBRRmBBBmmRRBmBBmmBRRmBBmmBRRmBBBm",
"BmmBBBBBBBmBBBBNBBmBBBBNBBmmBBBBBBBmBBBBNBBmBBBBNB",
"NNbnmBBNBNbnmnBBBNbbmmBBBBNbnmBBBBNbnmnBBBNbbmmBBB",
"BBmmBRRRRBBmBBRERBBmBBREEBBnmBRRERBBmBBRERBBmBBRRE",
"BBmmBRRmBBmmmRRmmBBmmRRBmBBnmBRRmBBmmmRRmmBBmmRRBm",
"RBBBBmBBRBBBBmBBRRBBBBmBBRBBBBmBBRBBBBmBBRRBBBBmBB",
"BNNNbnnNBBNNbnnnNBNNNbnnBBNNNbnnNBBNNbnnnBBNNNbnnN",
"RRBBmmBBRRRBNmBBRRRBBmBBRRRBBmmBBRRRBNmBBRRRBBmBBR",
"BmBBmmBRRmBBmmmRRBBBBmmR.X.BBmmBRRmBBmmmRRBBBBmmRR",
"BBRBBBBmBBRBBBBmBBRRBBBB=M5 BBBBmBBRBBBBmBBRRBBBBB",
"nNNnnBBnNNNNnNBnNnNNnNBNo-O nnBBnNNNNnNNnNnNNnNBNn",
"BBnmBBRRBBNmBBRRRBBmmBRRjWv mBBRRBBNmBBRRRBBnmBRRR",
"BBmmBRRmBBmmmRRBBBBmmRRRc_T mBRRmBBmmmRRBBBBmmRRRm",
"EBBBBBRBRBBBBBRBBRBBBBBN*g3 BBBRBRBBBBBRBBRBBBBBBB",
"BNNNNbnBBBNBNbnNBBNNBnb2der7NNbnNBBNBBbnNBBNBBnbnB",
"mBRBBBnmmBRBBBNmmmRRBB>UYCSu6BBnmmBRBBBNmmmRRBBBnm",
"RRRBBBmmBRRRBBBmmRRRBB<Q!VDGq BmmBRRRBBNmmRRRBBBmm",
"BBBmRBBBBBRmBBBBBBRBBR1IPZDG0 BBBBBRmBBNBBBRBBRBBB",
"NnBBBBNBBnNNBBNBBnmBBB8KHJFG0 BNBBnBBBBNBBnnNBBNNB",
"mmmBRBBBnmmBRBBBNmmmBB:sttypq BBBnmmBRBBBNmmmBBBBN",
"mmRRREBBmmBRREBBBmBRRR&hg4%wq EBBmmBRREBBBmBRRRRBB",
"BmBBBmRBmmBBRmBBBmmRRBz)(~k9q mRBmmBBRmBBBmmRRBBRm",
"BBBnBBBBNBBnBBBBNBBnmBx''/l9q BBBNBBnBBBBNBBnnBBBB",
"mBBBBBbmnBBBBBNnmmBBBBx'`^l9q BbmnBBBBNNnmmBBBBNbm",
"BRREBBmmBRRERBNmBRREEBx'`^l9q BmmBRRERBNmBRRRRBBmm",
"RRRmBBnmBRRmBBBmmRRBmBx'`^l9q BmmBRRmBBNmmRRBmBBmm",
"BmBBBBNBBmBBBBNBBmmBBBx'`^l9q BNBBmBBBBNBBnmBBBBNB",
"NNbmnNBBBnbnmnBBBnbbmmx'`^l9q BBBBnbnmnBBBnbbmmBBB",
"BBmmBRRERBBmBBRERBBmBBx'`^l9q RRERBBmBBRERBBmBBREE",
"BBmmBRRmBBmmmRRmmBBmmRx''/l9q RRmBBmmmRRmmBBmmRRBm",
"RBBBBmBBRBBBBmBBRRBBBBz)(~k9q mBBRBBBBmBBRRBBBBmBB",
"BNNNbnnNBBNNbnnnBBNNNb&gg4%wq nnNBBNNbnnnBBNNNbnnB",
"RRBBmmBBRRRBNmBBRRRBBn:sttypq mBBRRRBNmBBRRRBNmBBR",
"BmBBmmBRRmBBmmmRRBBBBm8LJJFG0 mBRRmBBmmmRRBBBBmmRR",
"BBRBBBBmBBRBBBBmBBRRBB,faaiA0 BBmBBRBBBBmBBRRBBBBB",
"nNNnnBBnNNNNnNBnNnNNnN+#$$$;@nBBnNNNNnNBnNnNNnNBNn",
"BBnmBBRRBBNmBBRRRBBmmBRRRBBnmBBRRBBNmBBRRRBNmmBRRR",
"BBmmBRRmBBmmmRRBBBBmmRRRmBBmmBRRmBBmmmRRBBBBmmRRRm",
"EBBBBBRBRBBBBBBBBRBBBBBBBRBBBBBRBRBNBBBBBBRBBBBBBB",
"BNNBNnnNBBnBBnnnBNnBBNnnNBNNBNnnNNNnBBnnnBBnBBNnnB",
"BmRRBBBnmmBRBBBnmmBRBBBNmmBRRBBBnmmBRBBBnmmBRBBBNm",
"BRRRBBBnmRRRBBBmmBRRRBBBmmRRRBBBmmRRRBBBmmBRRRBBBm",
"BBRBBRBBBBBBmRBBBBBRmRBBBBBRBBRBBBBBBmRBBBBBRmRBNB",
"BnmNBBNNBNnNBBBNBBnBBBBNBNnmBBBNNBBnNBBBNBBnNBBBNB",
"mmmBRBBBnmmBRBBBNmmmBBBBNnmmBRBBBnmmBRBBBNmmmBBBBN",
"mmRRREBBmmBRREBBBmBRRRRBBmmRRREBBmmBRREBBBmBRRRRBB",
"BmBBBmRBmmBBRmBBBmmRRBBRBmmBBBmRBmmBBRmBBBmmRRBBRm",
"RBBmBBRBBRBmBBRBNBBmBBRRBBRBmBBRBBRBmBBRBNBBmBBRBB"
};
