/* XPM */
static char *ca7fd1fb929140f9ea39a3fa0da5d2f6Gt5YyqWKyYl4OoTa[] = {
/* columns rows colors chars-per-pixel */
"50 50 47 1 ",
"  c #7F7E7D",
". c #7F7D7C",
"X c #827F7E",
"o c #817F7E",
"O c #807E7D",
"+ c #807D7B",
"@ c #7E7C7B",
"# c #7F7D7D",
"$ c #817E7D",
"% c #82807E",
"& c #817F7D",
"* c #807E7C",
"= c #7F7B7A",
"- c #807D7D",
"; c #807C7A",
": c #7E7C7C",
"> c #807F7F",
", c #817F7F",
"< c #82807F",
"1 c #81807F",
"2 c #80807F",
"3 c #7F7E7E",
"4 c #808080",
"5 c #807D7C",
"6 c #7E7D7D",
"7 c #7F7F7E",
"8 c #807E7E",
"9 c #807F7E",
"0 c gray50",
"q c #817E7C",
"w c #827F7D",
"e c #7F7C7B",
"r c #807C7B",
"t c #7F7B79",
"y c #7F7D7B",
"u c #817D7C",
"i c #818080",
"p c #7E7D7C",
"a c #7E7E7D",
"s c #7F7C7C",
"d c #82817F",
"f c #7E7E7E",
"g c #7F7C7A",
"h c #7E7B7A",
"j c #817D7B",
"k c #81807E",
"l c white",
/* pixels */
" .XooO+@##$%&O*=. -%o&*;: .XooO+@##$%&O*=. -%o&*;@",
">,<12,$.3>114>o.3>1<42,56>,<12,$.3>114>o.3>1<42,56",
"311>7>O.3,123>8.39110>>5 311>7>O.3,123>8.39110>>5 ",
"o. Ooo5qoO.8oo9+o$.8Ooo+&o. Ooo5qoO.8oo9+o$.8Ooo+w",
"+;=e.5$55rte.yq5q+==..uqq5;=e.5$55rte.yq5q+==..uqq",
">o.3>1<i1,56>><i1,$p>><ii>o.3>1<i1,56>><i1,$p>><ii",
">O.a>110>9.#31100>5# 11>0>O.a>110>9.#31100>5# 11>0",
"185o9 991,5oo#98115$oO39o185o9 991,5oo#98115$oO39o",
"q+rr=ee+$5r+=eeequ+r;=ee5q+rr=ee+$5r+=eeequ+r;=ee5",
"11>os3>od11o+6>9<11o*p99<11>os3>od11o+6>9<11o*p99<",
">0>O.f>110>9.6311>>95#311>0>O.f>110>9.6311>>95#311",
"9>18*,93>91,5oo3>9115&,899>18*,93>91,5oo3>9115&,89",
"er;ee5ue+r;+g+ue+erre+5+err;ee5ue+r;+g+ue+erre+5+e",
"9&e 9od1,o+698<11oq:38%<19&e 9od1,o+698<11oq:38%<1",
"9O.f>110>9.6711>>95#311209O.f>110>9.6711>>95#31120",
"i85999291>599929>1-O99>>>i85999291>599929>1-O99>>9",
"5++q+he555rqu=g+*5ruqe=e*5++q+he555rqu=g+*5ruqe=e5",
" o<o9$e#3O<oo$+:3 %1o8q@  o<o9$e#3O<oo$+:3 %1o8q@ ",
"111>>9.f>112>9567112>>O.3111>>9.f>112>9567112>>O.3",
">>>719599>17>>589>2>>1O-9>>>719599>17>>589>2>>1O-9",
"+e5O$*rq5e55$$rq5e.5$$+jq+e5O$*rq5e55$$rq5e.5$$+jq",
".##$%&Oqg. O%o$Or: #XooO+@##$%&Oqg. O%o$Or: #XooO+",
"332114>o.3>114>,56>1<22>O.32114>o.3>114>,56>1<22>O",
"93>,>328.39,17>>5 311>>1O#3>,>328.39,17>>5 311>>1#",
"w&5.OO$O+&OeOO$&r$$e.O$&5q&5.OO$O+&OeOO$&r$$e.O$&5",
".*XO55=s.5wO$5;e..$&$5+=..*XO55=s.5wO$5;e..$&$5+=.",
">114>o.3>1<42,56>1<i4,$.3>114>o.3>1<42,56>1<i4,$.3",
"1123>8.39110>>5 311>7>O.3>123>8.39110>>5 311>7>O.3",
"O#Oooo+o&.OOoo+&o. Ooo*qoO.Oooo+o&.OOoo+&o. Ooo*qo",
"+;=..5qq5e=e.yqqqe==..5$q+;=..5qq5e=e.yqqqe==..5$u",
">o.3>1<i1,56>><i1,$p>><ii>o.3>1<i1,56>><i1,$p>><ii",
">O.a>110>9.#31100>5# 11>0>O.a>110>9.#31100>5# 11>0",
"185o9 991,5oo#98115$oO39o185o9 991,5oo#98115$oO39o",
"q+rr=ee+$5r+=eeequ+r;=ee5q+rr=ee+$5r+=eeequ+r;=ee5",
"11>os3>od11o+6>9<11o*p99<11>os3>od11o+6>9<11o*p99<",
">0>O.f>110>9.6311>>95#311>0>O.f>110>9.6311>>95#311",
"9>18*,93>91,5oo3>9115&,899>18*,93>91,5oo3>9115&,89",
"er;ee5ue+r;+g+ue+erre+5+err;ee5ue+r;+g+ue+erre+5+e",
"9&e 9od1,o+698<11oq:38%<19&e 9od1,o+698<11oq:38%<1",
"9O.f>110>9.6711>>95#311209O.f>110>9.6711>>95#31120",
"i85999291>5999>9>1-O99>>>185999291>5999>9>1-O99>>9",
"5+rq+ge+*5gq5gee*5euqree55+rq+ge+*5gq5gee*5euqree5",
"8 %1oOq@  o<o9$e#3O<oo$+:3O%1oOq@  o<o9$e#3O<oo$+:",
"9112>>O.3111>>9.f>112>9567112>>O.3111>>9.f>112>956",
"9>1>>1OO9>>>719599>172>589>1>>1OO9>>>719599>172>58",
"qe.5$$++q5e5$$*;q5e55$$;uqe.5$$++q5e5$$*;q5e55$$;u",
".##$%&O*g. O%o&*r: #XooO+@##$%&O*g. O%o&*r: #XooO+",
"332114>o.3>114>,56>1<22>O.32114>o.3>114>,56>1<22>O",
"93>,>328.39>13>>5 311>>2O#3>,>328.39>13>>5 311>>1#",
"%XO#8oko5%o.89<o+Xo.OOkk*$%O#8oko5%o.89<o+Xo.OOko5"
};
