/* XPM */
static char *dd7d12173e0d4ac0b8202b0fecd867f3rSLZiMdmcal9K01R[] = {
/* columns rows colors chars-per-pixel */
"50 50 12 1 ",
"  c black",
". c #7F7B7A",
"X c #7E7C7B",
"o c #7F7E7D",
"O c #C01010",
"+ c #807D7B",
"@ c #817F7F",
"# c #81807F",
"$ c #105FC0",
"% c #818080",
"& c #898B8C",
"* c #FFF9F9",
/* pixels */
"oo@@@@+Xoo@#@@@.oo@#@@@+ooo@@@@+Xoo@#@@@.oo@#@@@+X",
"@@###@@oo@##%@@oo@##%#@+o@@###@@Xo@##%@@oo@##%#@@o",
"o##@o@@oo@##o@@oo@##o@@@oo##@o@@oo@##o@@oo@##o@@@o",
"@oo@@@@@@@o@@@@+@@o@@@@+@@oo@@@@@@@o@@@@+@@o@@@@+@",
"++.Xo@@+@+.XoX@@@+..oo@@@@+.Xo@@@@+.XoX@@@+..oo@@@",
"@@oo@####@@o@@#%#@@o@@#%%@@Xo@##%#@@o@@#%#@@o@@##%",
"@@oo@##o@@ooo##oo@@oo##@o@@Xo@##o@@ooo##oo@@oo##@o",
"#@@@@o@@#@@@@o@@##@@@@o@@#@@@@o@@#@@@@o@@##@@@@o@@",
"@+++.XX+@@++.XXX@@+++.XX@@+++.XX+@@++.XXX@@+++.XX+",
"##@@oo@@###@+o@@###@@o@@###@@oo@@###@+o@@###@@o@@#",
"@o@@oo@##o@@ooo##@@@@oo##@o@@oo@##o@@ooo##@@@@oo##",
"@@#@@@@o@@#@@@@o@@##@       @@@@o@@#@@@@o@@##@@@@@",
"X++XX@@X++++X+@X+X++  $$ OO  X@@X++++X++X+X++X+@+X",
"@@Xo@@##@@+o@@###@@o $$$ OOO @@##@@+o@@###@@Xo@###",
"@@oo@##o@@ooo##@@              #o@@ooo##@@@@oo###o",
"%@@@@@#@#@@@@@#@  @@@@@@ %@@@@   #@@@@@#@@#@@@@@@@",
"@++@+.X@@@+@@.X  @+@@X.X @++@+.X  @+@@.X+@@+@@X.X@",
"o@#@@@Xoo@#@@@+ oo##@@@X o@#@@@Xo  #@@@+ooo##@@@Xo",
"###@@@oo@###@@  o###@@@o ###@@@oo@  #@@@oo###@@@oo",
"@@@o#@@@@@#o@@ @@@#@@#@@ @@@o#@@@@@  @@@@@@#@@#@@@",
"+X@@@@+@@X++@  @@Xo@@@++ +X@@@@+@@X   @+@@Xo@@@++@",
"ooo@#@@@Xoo@#                             ooo@@@@+",
"oo###%@      $ ********* *********** $$$$    ###@@",
"@o@@@   $$$$$$ ********* *********** $$$$$$$  @@#o",
"@@@  $$$$$$$$$ ********* *  ******** $$$$$$$$  @@@",
"o@@ $$$$$$$$$$ ********* * ********* $$$$$$$$$  .o",
"@## $$$$$$$$$$ ********* *********** $$$$$$$$$$  o",
"### $$$$$$$$$$ ********* *********** $$$$$$$$$$$ o",
"@o@ $$$$$$$     ******** *********     $$$$$$$$$ @",
"++. $$$$$$       ******* ********       $$$$$$$$ @",
"@@o $$$$$    &    ****** *******    &            %",
"@@o         &&&                    &&&   +@@oo##+o",
"#@@@@o@@#  &&&&&  @@@@o@@#@@@@o@  &&&&&  ##@@@@o@@",
"@+++.XX+@   &&&   +++.XX@@+++.XX   &&&   @@+++.XX@",
"##@@oo@@#    &    #@@o@@###@@oo@    &    ###@+o@@#",
"@o@@oo@##o       @@@@oo##@o@@oo@o       @#@@@@oo##",
"@@#@@@@o@@#     @@##@@@@@@@#@@@@@#     @@@@##@@@@@",
"X++XX@@X++++X+@X+X++X+@+X+++XX@@X++++X+@X+X++X+@+X",
"@@Xo@@##@@+o@@###@@oo@###@@Xo@@##@@+o@@###@+oo@###",
"@@oo@##o@@ooo##@@@@oo###o@@oo@##o@@ooo##@@@@oo###o",
"%@@@@@#@#@@@@@@@@#@@@@@@@#@@@@@#@#@+@@@@@@#@@@@@@@",
"@++@+XX+@@X@@XXX@+X@@+XX+@++@+XX+++X@@XXX@@X@@+XX@",
"@o##@@@Xoo@#@@@Xoo@#@@@+oo@##@@@Xoo@#@@@Xoo@#@@@+o",
"@###@@@Xo###@@@oo@###@@@oo###@@@oo###@@@oo@###@@@o",
"@@#@@#@@@@@@o#@@@@@#o#@@@@@#@@#@@@@@@o#@@@@@#o#@+@",
"@Xo+@@++@+X+@@@+@@X@@@@+@+Xo@@@++@@X+@@@+@@X+@@@+@",
"ooo@#@@@Xoo@#@@@+ooo@@@@+Xoo@#@@@Xoo@#@@@+ooo@@@@+",
"oo###%@@oo@##%@@@o@####@@oo###%@@oo@##%@@@o@####@@",
"@o@@@o#@oo@@#o@@@oo##@@#@oo@@@o#@oo@@#o@@@oo##@@#o",
"#@@o@@#@@#@o@@#@+@@o@@##@@#@o@@#@@#@o@@#@+@@o@@#@@"
};
