/* XPM */
static char *c47654bee62f48cbe6cef4b6a9cbf1d3GK9SSVzRWtpOUKmk[] = {
/* columns rows colors chars-per-pixel */
"50 50 131 2 ",
"   c #473F37",
".  c #493F33",
"X  c #453F3C",
"o  c #4D402E",
"O  c #50422E",
"+  c #4D4233",
"@  c #46413E",
"#  c #4C443C",
"$  c #524534",
"%  c #51463A",
"&  c #54493C",
"*  c #5A4D3C",
"=  c #5E513F",
"-  c #454244",
";  c #4A4542",
":  c #4F4946",
">  c #45454C",
",  c #48474B",
"<  c #534B43",
"1  c #5A4F44",
"2  c #534E4C",
"3  c #5E5243",
"4  c #5B534C",
"5  c #474750",
"6  c #474850",
"7  c #4A4A53",
"8  c #4F4F58",
"9  c #524F54",
"0  c #4F5059",
"q  c #515057",
"w  c #5B5553",
"e  c #5F5852",
"r  c #53535C",
"t  c #58565C",
"y  c #5D5A5D",
"u  c #625545",
"i  c #665947",
"p  c #625749",
"a  c #655A4B",
"s  c #6A5D4C",
"d  c #665D54",
"f  c #695E52",
"g  c #655E5B",
"h  c #6E604E",
"j  c #71634E",
"k  c #6D6154",
"l  c #66605F",
"z  c #6C635B",
"x  c #726553",
"c  c #776855",
"v  c #786A57",
"b  c #71665C",
"n  c #766A5C",
"m  c #796C5C",
"M  c #7D705F",
"N  c #585762",
"B  c #575862",
"V  c #5A5A65",
"C  c #5D5D69",
"Z  c #625F63",
"A  c #615F68",
"S  c #666161",
"D  c #6A6463",
"F  c #6F6867",
"G  c #62626E",
"H  c #6A666B",
"J  c #6E696C",
"K  c #706761",
"L  c #736A64",
"P  c #7A6E61",
"I  c #756D6C",
"U  c #786F6E",
"Y  c #7C7165",
"T  c #7B716D",
"R  c #676774",
"E  c #696771",
"W  c #676875",
"Q  c #696976",
"!  c #6C6C7B",
"~  c #716C70",
"^  c #706D75",
"/  c #716F7A",
"(  c #706F7C",
")  c #7A7374",
"_  c #7B7374",
"`  c #7F7777",
"'  c #767279",
"]  c #7C7579",
"[  c #7D7679",
"{  c #7C767B",
"}  c #7D777E",
"|  c #7F797D",
" . c #80766E",
".. c #807775",
"X. c #837974",
"o. c #827B7E",
"O. c #6F6F80",
"+. c #6F7081",
"@. c #717183",
"#. c #737385",
"$. c #737486",
"%. c #747486",
"&. c #7A7780",
"*. c #787685",
"=. c #7E7880",
"-. c #7F7B86",
";. c #767689",
":. c #77788B",
">. c #78788B",
",. c #7B7A8B",
"<. c #7F7C8B",
"1. c #7D7B8C",
"2. c #7E7D8F",
"3. c #7D7D92",
"4. c #7D7E94",
"5. c #837D83",
"6. c #847D83",
"7. c #837E89",
"8. c #86818D",
"9. c #8A848D",
"0. c #808096",
"q. c #848294",
"w. c #898695",
"e. c #8A8694",
"r. c #8B8897",
"t. c #83839A",
"y. c #858499",
"u. c #85859B",
"i. c #89879A",
"p. c #8C899C",
"a. c #8C8BA3",
/* pixels */
"R R R R R R Q R R R R R R R R C r 7 > 4 a > > > 7 7 7 7 7 7 7 7 7 7 7 7 7 7 7 7 7 7 7 > , u D Q R R ",
"R R R R R R Q Q R R R R R G B 7 7 > - a x 1 ; - - - - > > > > > > > > > > > > > > > > > > u S Q R R ",
"R R R R R R R R R R R G V q 7 > > ; p n Y Y b z f d p p 4 1 & & & % % & & % # # < # # # & u g Q R R ",
"R R R R R R R R R R C q 7 7 > - & h L <.3.,.2.3.1.1.2.<.<.-.=.=.} [ [ [ [ _ T I _ T I L L h a C G R ",
"C C G G R R R G C B 7 7 > - # 3 z ~ ! @.! ! ! ! ! ! ! ! ! O.@.@.#.#.#.$.%.%.;.,.,.3.3.4.0.I a t B V ",
"B r r B B B r r 7 7 > - # 3 k ~ ( ! ! Q Q R Q Q Q Q Q Q Q Q Q Q Q Q Q Q Q Q Q Q Q R Q Q ! H i t B B ",
"q 7 7 7 7 7 7 7 7 - @ * f I / ! Q Q Q R R Q ! R R R R R R R R R R R R R R R R R Q Q R R Q E i w r q ",
"7 7 7 7 7 , > - X + i F Q ! ! Q R R R R R Q R R R R R R R R R R R R R R R R R R G R G V B N i 4 7 7 ",
"@ @ @ @ # + o O * f Z C C G R R R R R R R R R R R R R R R R R R R R R R G C N r q q q 7 7 > 3 i ; @ ",
"u s b T [ [ [ P c y 0 8 8 q r B B B B B N V V V V V V V C C V V V N B r q 8 7 7 7 , - - X + u x s u ",
"w.i.u.t.0.3.4.&.k 2 > 5 6 7 7 7 7 7 7 7 7 7 7 7 7 7 7 7 7 7 7 7 7 7 > > > - @   . + $ * i b T ` 5.8.",
"$.@.! ! ! ! ! Q f p : @ @ @ @ @ @ @ @ @ @ @ @ - - - @ @ @ - @ @ ; ; # # & 3 a z I [ =.-.2.,.;.%.%.%.",
"Q Q Q Q Q Q ! ! f c x s i u u u i i i a a f z k f d d d s s i i s k I 7.q.u.u.0.,.;.@.! Q Q Q Q Q Q ",
"R R R R R R ! ! k P 7.q.q.q.q.q.q.q.q.u.u.q.u.u.0.q.u.u.u.i.p.8.m T a.0.,.@.! Q Q Q Q Q R R R R R R ",
"R R R R R R Q ! k L @.@.@.@.@.@.@.@.@.@.@.O.! ! ! @.@.@.@.#.;.3.z S @.! ! Q Q R R R R R R R R R R R ",
"R R R R R R Q ! z F ! ! ! ! ! ! ! Q Q Q Q Q Q Q Q Q ! @.! ! ! Q p g O.! Q R R R R R R R R R R R R Q ",
"R R R R R R Q ! z F ! ! ! ! Q R R R R R R R R R R R Q Q ! ! ! Q u g @.! Q R R R R R R R R R R R Q Q ",
"R R R R R R Q ! z J ! ! Q R R R R R R R R R R R R Q Q R Q Q ! ! p g ! Q Q R R R R R R R R R Q Q Q R ",
"R R R R R R Q ! z F ! Q R R R R R R Q R R R R R R R R R R Q ! ! a g Q R R R R R R R R R R Q Q Q R R ",
"R R R R R R R R f K ! Q R R R R R R Q Q R R R R R R R R R R R G p w C G R R R R R R R R R R R R R R ",
"R R R R R G V q e z ! Q R W R R R R R R R R R R R R R R R C N t u 4 r r B V C C G G G G R R R R R R ",
"N N N B B r 0 7 w z C G G R R R R R R R R R R R R G G C V B r q 3 2 7 7 8 q q r r r r r r B B N N N ",
"7 7 7 7 7 7 7 > 4 d B B B N C C C C C C C C C V N N B r q 7 7 7 p 3 > > > 6 7 7 7 7 7 7 7 7 7 7 7 7 ",
"- - - - - - - - u d B B B B B N N B B B r r r q 7 7 7 7 > > - : h j & X X X X - - - - - - - - - - - ",
"3 * * * * * * u j f q r r r r r r r 7 7 7 7 7 > > > - - # % 3 x P Y n f i u = * * & & * 3 3 u u 3 3 ",
"p.q.8.8.8.7.7.o.m f 7 7 7 7 7 7 7 7 > > - - @ # & 1 d K U | 8.q.q.0.0.q.q.q.q.q.q.q.7.m ..p.p.p.p.p.",
";.$.%.%.%.%.%.;.I x 2 > > > > - - @ + % 3 a L _ 5.q.i.u.0.,.;.$.@.! ! ! ! +.@.#.#.;.3.n I ;.%.;.;.;.",
"Q Q Q Q Q Q Q Q Q n i & % & 3 u f b I I x _ t.3.,.;.@.O.! ! ! Q Q Q Q Q Q Q Q Q ! @.Q k S ! ! Q Q Q ",
"R R R R R R R R Q L c b _ 5.7.<.1.,.;.~ h H @.O.! Q Q Q Q Q R R R R R R R R R R Q ! Q s S ! Q R R R ",
"R R R R R R R R Q J c 5.a.4.$.! ! ! ! H s H @.! Q R R R R R R R R R R R R R R W W ! Q i S ! R R R R ",
"R R R R R R R R R S x ' @.Q Q Q Q Q ! H s H O.Q R R R R R Q R R R R R R R R W W R Q E i S ! R R Q R ",
"G R R R R R R R R w h E Q R R R R R ! H s H Q R R R R R R Q Q R R R R R R R W R R Q Q i S Q R R Q Q ",
"Q R R R R R R R G 4 k Q Q R R R R R Q S s H Q R R R R R R R Q R R R R R R R R R R Q E i l Q R R R Q ",
"R R R R R R R R C 3 k Q Q R R R R R Q S s S R R R R R R R R R R R R R R R R R R R Q E i S Q R R R R ",
"R R R R R R R R N 3 z Q R R R R R R Q S i y R R R R R R R R R R R R R R R R R R R W E i S Q R W R R ",
"R R R R R R R R t i F Q R R Q R R R Q S i w V C G G R R R R R R R R R R R R R R R R G i S W R R R R ",
"R R R R R R R C w i D R R R Q Q Q R Q l s 9 q r r r B N V V C C C C R C C C C C V V y i S W R R R R ",
"R R R R R G C r w s y G R R R R Q R Q g s , > 5 7 7 7 7 7 7 7 7 8 q 8 8 q q q r r q 7 u g R R R R R ",
"G G C V B r 7 7 4 p 9 B C G R R R R Q g x 3 # @ @ @ @ @ - - - - - > > > > > > > > > > u w C G R R G ",
"q 8 8 7 7 > > - 3 p , 7 7 q B V C G G g v M m b k s s i u = * * * & & & % # # # # # 1 h w r r r r r ",
"> > > ; ; @ + * j x 3 ; - > 7 7 7 7 q 4 n r.a.p.i.i.w.w.w.9.9.9.9.5.5.o.X.X. .Y P m m c 2 > 6 > > > ",
"1 4 d K L I _ [ o.o.[ L 3 & # ; > > > < k *.;.@.@.#.#.#.#.%.;.;.:.,.,.3.4.0.t.u.q.q.q.Y s < # # % & ",
"-.<.<.,.,.,.;.#.@.@.;.0.7.[ b a * < < u k E +.O.O.! ! Q Q Q Q Q ! ! ! ! ! ! ! ! ! O.;.5.v x b L _ } ",
"@.O.! ! Q Q Q Q Q Q Q Q ! #.,.2.-.I b c x E @.! Q Q Q R R R R R R Q Q Q Q Q Q Q ! ! O.[ v | t.,.%.#.",
"Q Q Q Q R R R R R R R R R R Q Q O.;.<.Y x Q O.Q R R R R R R R R R R W W R R R R R Q ! ^ m I @.! ! ! ",
"R R R R R R R R R R R R R R R R R Q R b x Q Q R R R R R R R R R R R R R R R R R R R Q ! n z O.! Q R ",
"R R R R R Q R R R R R R R R R R R R C d x E Q R R R R R R R R R R Q Q Q Q R R R R R R G b z ! Q R R ",
"R R R R R Q Q R R R R R R R R R R R V e f A R R R R Q Q R R R R R R Q Q Q R R R R R G N d f Q Q R R ",
"R R R R R Q Q R R R R R R R R R R G r w s t C G G R R R R R R R R R R R R R R R G C B 8 w s E Q R R ",
"R R R R R Q Q R R R R R R R R R R V 7 w s q q r r r B B N V V V C C C C C V V N B B 7 7 2 i H Q R R "
};
